<svg xmlns="http://www.w3.org/2000/svg" version="1.1" xmlns:xlink="http://www.w3.org/1999/xlink"
    xmlns:svgjs="http://svgjs.dev/svgjs" width="1500" height="1500" viewBox="0 0 1500 1500">
    <rect width="1500" height="1500" fill="#fe2205"></rect>
    <g
        transform="matrix(0.6666666666666666,0,0,0.6666666666666666,249.51138795073712,91.88387096774193)">
        <svg viewBox="0 0 189 248" data-background-color="#fe2205"
            preserveAspectRatio="xMidYMid meet" height="1968" width="1500"
            xmlns="http://www.w3.org/2000/svg" xmlns:xlink="http://www.w3.org/1999/xlink">
            <g id="tight-bounds" transform="matrix(1,0,0,1,0.09234767731069837,0.4000000000000057)">
                <svg viewBox="0 0 188.8153046453786 247.2" height="247.2" width="188.8153046453786">
                    <g>
                        <svg viewBox="0 0 243.442298214826 318.71852883816484" height="247.2"
                            width="188.8153046453786">
                            <g>
                                <svg viewBox="0 0 243.442298214826 318.71852883816484"
                                    height="318.71852883816484" width="243.442298214826">
                                    <g id="textblocktransform">
                                        <svg viewBox="0 0 243.442298214826 318.71852883816484"
                                            height="318.71852883816484" width="243.442298214826"
                                            id="textblock">
                                            <g>
                                                <svg viewBox="0 0 243.442298214826 245.672304"
                                                    height="245.672304" width="243.442298214826">
                                                    <g transform="matrix(1,0,0,1,0,0)">
                                                        <svg width="243.442298214826"
                                                            viewBox="0.2 -33.05 32.75 33.05"
                                                            height="245.672304"
                                                            data-palette-color="#fff9ef">
                                                            <path
                                                                d="M12.9 0L0.2 0 0.4-1.05 1.1-1.3Q3.1-2.05 3.45-4L3.45-4 6-17.55Q6.5-20.2 7.03-23.23 7.55-26.25 8.05-29.05L8.05-29.05Q8.35-31.05 6.5-31.75L6.5-31.75 5.9-32 6.15-33.05 17.6-33.05Q22.6-33.05 26.03-31.28 29.45-29.5 31.2-26.35 32.95-23.2 32.95-19.15L32.95-19.15Q32.95-14.6 31.35-11.05 29.75-7.5 26.98-5.03 24.2-2.55 20.58-1.28 16.95 0 12.9 0L12.9 0ZM9.55-1.45L9.55-1.45 12.5-1.45Q16.8-1.45 19.83-3.88 22.85-6.3 24.45-10.4 26.05-14.5 26.05-19.55L26.05-19.55Q26.05-25.5 23.65-28.45 21.25-31.4 16.7-31.6L16.7-31.6 15.1-31.6 12.05-15.5Q11.4-12 10.75-8.5 10.1-5 9.55-1.45Z"
                                                                opacity="1"
                                                                transform="matrix(1,0,0,1,0,0)"
                                                                fill="#fff9ef"
                                                                class="wordmark-text-0"
                                                                data-fill-palette-color="primary"
                                                                id="text-0"></path>
                                                        </svg>
                                                    </g>
                                                </svg>
                                            </g>
                                            <g
                                                transform="matrix(1,0,0,1,41.38519069652041,303.669638839104)">
                                                <svg
                                                    viewBox="0 0 160.67191682178517 15.04888999906084"
                                                    height="15.04888999906084"
                                                    width="160.67191682178517">
                                                    <g transform="matrix(1,0,0,1,0,0)">
                                                        <svg width="160.67191682178517"
                                                            viewBox="1.4 -37.7 409.41 38.35"
                                                            height="15.04888999906084"
                                                            data-palette-color="#fff9ef">
                                                            <path
                                                                d="M16.85 0.65Q14.9 0.65 11.1 0.25L11.1 0.25Q8.2-0.05 6.6-0.15L6.6-0.15Q5.95-0.2 5.63-0.33 5.3-0.45 4.55-0.9L4.55-0.9Q5.05-1.6 5.28-2.02 5.5-2.45 5.7-3.2L5.7-3.2Q6.25-5.35 8.6-18.03 10.95-30.7 10.95-31.65L10.95-31.65Q10.95-31.9 10.78-32.08 10.6-32.25 10.25-32.25L10.25-32.25Q10-32.25 7.8-31.85L7.8-31.85Q4.35-31.2 3.2-31.2L3.2-31.2Q1.4-31.2 1.4-32.5L1.4-32.5Q1.4-33.05 1.68-33.88 1.95-34.7 2.2-35.15L2.2-35.15Q2.9-34.9 3.68-34.8 4.45-34.7 6.1-34.7L6.1-34.7Q9.4-34.7 14.2-35.05L14.2-35.05Q19.3-35.35 21.25-35.35L21.25-35.35Q30-35.35 34.43-31.68 38.85-28 38.85-20.8L38.85-20.8Q38.85-15.5 36.5-10.58 34.15-5.65 29.2-2.5 24.25 0.65 16.85 0.65L16.85 0.65ZM17.9-2Q22.8-2 26.43-4.67 30.05-7.35 31.98-11.73 33.9-16.1 33.9-21.1L33.9-21.1Q33.9-27.25 30.65-30.13 27.4-33 20.3-33L20.3-33Q18.4-33 17.55-32.8 16.7-32.6 16.43-32.2 16.15-31.8 15.95-30.95L15.95-30.95Q15.05-26.5 11.4-7.5L11.4-7.5Q11.3-7.1 11.08-5.95 10.85-4.8 10.85-4.25L10.85-4.25Q10.85-3.85 11.05-3.63 11.25-3.4 11.75-3.15L11.75-3.15Q12.85-2.65 14.53-2.33 16.2-2 17.9-2L17.9-2ZM68.75-17.85Q69.15-17.6 69.15-17.2L69.15-17.2Q69.15-16.1 68.25-15 67.35-13.9 65.75-13.2 64.15-12.5 62.25-12.5L62.25-12.5Q59.6-12.5 58-13.85 56.4-15.2 56.3-17.3L56.3-17.3Q54.1-17.1 52.42-15.5 50.75-13.9 49.9-11.6L49.9-11.6 49.9-11.5 49.9-11.5Q49.7-11 49.65-10.75L49.65-10.75Q49.2-9.15 47.7-0.5L47.7-0.5Q47.65 0 45.55 0L45.55 0Q43.55 0 43.55-0.7L43.55-0.7Q43.55-1.1 43.85-2.75L43.85-2.75Q44.75-7.8 45.8-13.25 46.85-18.7 47.1-19.55L47.1-19.55Q47.3-20.3 47.82-20.55 48.35-20.8 49.25-20.8L49.25-20.8Q50.95-20.8 52.15-20.3L52.15-20.3Q51.75-19.15 51.05-16.2L51.05-16.2Q52.45-18.2 54.22-19.4 56-20.6 57.85-20.6L57.85-20.6Q58.7-20.6 59.3-20.38 59.9-20.15 60.05-19.85L60.05-19.85Q60.05-14.75 63.8-14.75L63.8-14.75Q66.8-14.75 68.75-17.85L68.75-17.85ZM69.9 0.35Q67.59 0.35 66.25-0.88 64.9-2.1 64.9-4.8L64.9-4.8Q64.9-5.45 64.95-5.8L64.95-5.8 66.55-13.4Q67.55-18.5 67.84-19.65L67.84-19.65Q68.09-20.25 68.8-20.63 69.5-21 70.4-21L70.4-21Q71.2-21 71.72-20.68 72.25-20.35 72.3-19.95L72.3-19.95Q71.25-15.3 69.45-6.2L69.45-6.2Q69.4-5.8 69.4-5.15L69.4-5.15Q69.4-3.75 70-3.15 70.59-2.55 71.75-2.55L71.75-2.55Q73.75-2.55 76.05-3.98 78.34-5.4 80.32-7.53 82.3-9.65 83.4-11.75L83.4-11.75Q84.15-11.45 84.15-10.75L84.15-10.75Q84.15-10.25 83.95-9.73 83.75-9.2 83.7-9.05L83.7-9.05Q82.75-6.8 80.42-4.6 78.09-2.4 75.22-1.03 72.34 0.35 69.9 0.35L69.9 0.35ZM71-26.2Q69.8-26.2 69.17-26.9 68.55-27.6 68.55-28.8L68.55-28.8Q68.55-30.35 69.45-31.4 70.34-32.45 71.9-32.45L71.9-32.45Q73.09-32.45 73.75-31.8 74.4-31.15 74.4-29.95L74.4-29.95Q74.4-28.4 73.45-27.3 72.5-26.2 71-26.2L71-26.2ZM93.39-21.85Q96.24-20.95 97.59-19.7 98.94-18.45 98.94-16.45L98.94-16.45Q98.94-14.25 97.47-11.83 95.99-9.4 93.87-7.15 91.74-4.9 88.04-1.3L88.04-1.3 86.69 0 83.54 0Q83.84-0.5 83.89-0.85L83.89-0.85Q83.59-4.95 82.97-8.75 82.34-12.55 81.79-14.85L81.79-14.85Q81.29-17 80.79-17.68 80.29-18.35 79.29-18.4L79.29-18.4 77.64-18.45Q77.64-18.85 77.74-19.3 77.84-19.75 78.04-19.95L78.04-19.95Q79.54-20.15 80.37-20.38 81.19-20.6 81.92-20.9 82.64-21.2 82.94-21.3L82.94-21.3Q84.24-20.95 84.84-20 85.44-19.05 85.99-16.3L85.99-16.3Q86.44-14.25 86.69-11.75 86.94-9.25 87.39-3.55L87.39-3.55Q90.74-7.4 92.52-10.8 94.29-14.2 94.29-17.4L94.29-17.4Q94.29-18.75 93.94-19.73 93.59-20.7 92.89-21.6L92.89-21.6 93.39-21.85ZM125.59-11.45Q126.44-11.05 126.44-10.3L126.44-10.3Q126.44-8.05 123.81-5.58 121.19-3.1 117.31-1.43 113.44 0.25 110.14 0.25L110.14 0.25Q107.44 0.25 105.54-0.85 103.64-1.95 102.67-3.33 101.69-4.7 101.69-5.35L101.69-5.35Q102.04-6.65 102.37-8.45 102.69-10.25 102.84-10.95L102.84-10.95Q102.99-11.85 103.22-13.08 103.44-14.3 103.79-15.9L103.79-15.9Q103.99-16.9 105.54-18.13 107.09-19.35 109.06-20.18 111.04-21 112.34-21L112.34-21Q113.44-21 114.97-20.4 116.49-19.8 117.59-18.73 118.69-17.65 118.69-16.2L118.69-16.2Q118.69-14.35 116.87-12.6 115.04-10.85 112.24-9.73 109.44-8.6 106.74-8.5L106.74-8.5 106.34-6.4Q106.49-4.85 107.79-3.73 109.09-2.6 111.69-2.6L111.69-2.6Q114.19-2.6 116.92-3.75 119.64-4.9 121.97-6.93 124.29-8.95 125.59-11.45L125.59-11.45ZM111.89-18.9Q110.64-18.9 109.47-17.7 108.29-16.5 107.99-15.3L107.99-15.3 107.14-10.75Q110.14-10.95 112.24-12.5 114.34-14.05 114.34-16.15L114.34-16.15Q114.34-17.4 113.62-18.15 112.89-18.9 111.89-18.9L111.89-18.9ZM174.69-37.7Q178.39-37.7 178.39-35L178.39-35Q178.39-34.35 178.19-33.77 177.99-33.2 177.74-32.9L177.74-32.9Q176.84-33.25 174.99-33.25L174.99-33.25Q169.59-33.25 164.71-29.58 159.84-25.9 156.41-19.93 152.99-13.95 151.79-7.35L151.79-7.35Q151.54-5.85 151.14-2.45L151.14-2.45 150.94-0.9Q150.84-0.35 150.61-0.18 150.39 0 149.99 0L149.99 0Q148.29 0 146.91 0.13 145.54 0.25 144.64 0.65L144.64 0.65Q144.39 0.3 144.39 0.1L144.39 0.1Q146.39-3.2 147.46-8.55 148.54-13.9 148.54-18.5L148.54-18.5Q148.54-24.2 146.69-27.53 144.84-30.85 140.89-30.85L140.89-30.85Q138.49-30.85 137.01-29.63 135.54-28.4 133.89-25.9L133.89-25.9Q133.34-26.1 133.04-26.63 132.74-27.15 132.74-27.8L132.74-27.8Q132.74-29.15 133.86-30.98 134.99-32.8 137.06-34.13 139.14-35.45 141.89-35.45L141.89-35.45Q146.69-35.45 149.24-31.23 151.79-27 151.79-19.75L151.79-19.75Q151.79-18.85 151.69-17.05L151.69-17.05Q153.99-22.35 157.86-27.13 161.74-31.9 166.21-34.8 170.69-37.7 174.69-37.7L174.69-37.7ZM200.28-18.15Q200.93-17.9 200.93-17.1L200.93-17.1Q200.93-15.7 199.58-14.43 198.23-13.15 196.06-12.35 193.88-11.55 191.58-11.55L191.58-11.55Q189.78-11.55 187.88-12.1L187.88-12.1Q187.83-11.75 187.73-11.33 187.63-10.9 187.53-10.3L187.53-10.3Q187.38-9.5 186.96-7.35 186.53-5.2 186.43-4.3L186.43-4.3Q186.03-3.45 184.73-2.33 183.43-1.2 181.68-0.4 179.93 0.4 178.23 0.4L178.23 0.4Q176.58 0.4 174.88-0.4 173.18-1.2 172.06-2.58 170.93-3.95 170.93-5.55L170.93-5.55Q171.63-8.25 171.98-10 172.33-11.75 172.83-15L172.83-15Q173.03-16.2 174.46-17.57 175.88-18.95 177.96-19.85 180.03-20.75 182.03-20.75L182.03-20.75 182.68-20.75Q182.83-21.65 183.38-22.08 183.93-22.5 185.03-22.5L185.03-22.5Q186.68-22.5 187.13-21.85L187.13-21.85Q186.63-19.75 186.63-18.85L186.63-18.85Q186.63-16.6 188.26-15.3 189.88-14 192.78-14L192.78-14Q195.23-14 197.28-15 199.33-16 200.28-18.15L200.28-18.15ZM178.73-2.3Q179.73-2.3 180.78-3.03 181.83-3.75 182.18-4.65L182.18-4.65Q182.68-7.35 183.13-9.25L183.13-9.25Q183.28-9.95 183.61-11.5 183.93-13.05 184.13-14.3L184.13-14.3Q182.88-15.55 182.58-17.3L182.58-17.3Q182.58-17.5 182.51-17.65 182.43-17.8 182.28-17.85L182.28-17.85Q181.98-17.95 181.43-17.95L181.43-17.95Q179.73-17.95 178.63-16.98 177.53-16 177.23-14.45L177.23-14.45Q176.18-9.55 175.33-5.7L175.33-5.7Q175.38-4.15 176.48-3.23 177.58-2.3 178.73-2.3L178.73-2.3ZM222.78-11.7Q223.58-11.5 223.58-10.8L223.58-10.8Q223.58-9.6 221.73-6.85 219.88-4.1 217.21-1.93 214.53 0.25 211.88 0.25L211.88 0.25Q209.88 0.25 208.48-1.03 207.08-2.3 207.03-4.3L207.03-4.3Q205.68-2.45 203.93-1.1 202.18 0.25 200.63 0.25L200.63 0.25Q199.08 0.25 197.38-1 195.68-2.25 195.48-3.6L195.48-3.6 198.43-19.8Q198.63-20.75 199.08-20.75L199.08-20.75Q199.68-20.75 201.26-20.33 202.83-19.9 202.83-19.5L202.83-19.5Q202.83-19.35 202.38-17.55L202.38-17.55Q201.88-15.45 201.01-11.1 200.13-6.75 199.83-4.85L199.83-4.85Q199.93-4.15 200.56-3.58 201.18-3 202.03-3L202.03-3Q203.48-3 205.06-4.73 206.63-6.45 207.68-10.1L207.68-10.1Q208.58-13.15 209.98-20.2L209.98-20.2Q210.08-20.75 210.53-20.75L210.53-20.75Q211.18-20.75 212.61-20.33 214.03-19.9 214.03-19.4L214.03-19.4Q212.58-14.2 211.58-10 210.58-5.8 210.58-4.5L210.58-4.5Q210.58-3.55 211.16-2.9 211.73-2.25 212.83-2.25L212.83-2.25Q214.93-2.25 217.63-4.73 220.33-7.2 222.78-11.7L222.78-11.7ZM243.73-17.85Q244.13-17.6 244.13-17.2L244.13-17.2Q244.13-16.1 243.23-15 242.33-13.9 240.73-13.2 239.13-12.5 237.23-12.5L237.23-12.5Q234.58-12.5 232.98-13.85 231.38-15.2 231.28-17.3L231.28-17.3Q229.08-17.1 227.4-15.5 225.73-13.9 224.88-11.6L224.88-11.6 224.88-11.5 224.88-11.5Q224.68-11 224.63-10.75L224.63-10.75Q224.18-9.15 222.68-0.5L222.68-0.5Q222.63 0 220.53 0L220.53 0Q218.53 0 218.53-0.7L218.53-0.7Q218.53-1.1 218.83-2.75L218.83-2.75Q219.73-7.8 220.78-13.25 221.83-18.7 222.08-19.55L222.08-19.55Q222.28-20.3 222.8-20.55 223.33-20.8 224.23-20.8L224.23-20.8Q225.93-20.8 227.13-20.3L227.13-20.3Q226.73-19.15 226.03-16.2L226.03-16.2Q227.43-18.2 229.2-19.4 230.98-20.6 232.83-20.6L232.83-20.6Q233.68-20.6 234.28-20.38 234.88-20.15 235.03-19.85L235.03-19.85Q235.03-14.75 238.78-14.75L238.78-14.75Q241.78-14.75 243.73-17.85L243.73-17.85ZM266.22 0.65Q264.27 0.65 260.47 0.25L260.47 0.25Q257.57-0.05 255.97-0.15L255.97-0.15Q255.32-0.2 255-0.33 254.67-0.45 253.92-0.9L253.92-0.9Q254.42-1.6 254.65-2.02 254.87-2.45 255.07-3.2L255.07-3.2Q255.62-5.35 257.97-18.03 260.32-30.7 260.32-31.65L260.32-31.65Q260.32-31.9 260.15-32.08 259.97-32.25 259.62-32.25L259.62-32.25Q259.37-32.25 257.17-31.85L257.17-31.85Q253.72-31.2 252.57-31.2L252.57-31.2Q250.77-31.2 250.77-32.5L250.77-32.5Q250.77-33.05 251.05-33.88 251.32-34.7 251.57-35.15L251.57-35.15Q252.27-34.9 253.05-34.8 253.82-34.7 255.47-34.7L255.47-34.7Q258.77-34.7 263.57-35.05L263.57-35.05Q268.67-35.35 270.62-35.35L270.62-35.35Q279.37-35.35 283.8-31.68 288.22-28 288.22-20.8L288.22-20.8Q288.22-15.5 285.87-10.58 283.52-5.65 278.57-2.5 273.62 0.65 266.22 0.65L266.22 0.65ZM267.27-2Q272.17-2 275.8-4.67 279.42-7.35 281.35-11.73 283.27-16.1 283.27-21.1L283.27-21.1Q283.27-27.25 280.02-30.13 276.77-33 269.67-33L269.67-33Q267.77-33 266.92-32.8 266.07-32.6 265.8-32.2 265.52-31.8 265.32-30.95L265.32-30.95Q264.42-26.5 260.77-7.5L260.77-7.5Q260.67-7.1 260.45-5.95 260.22-4.8 260.22-4.25L260.22-4.25Q260.22-3.85 260.42-3.63 260.62-3.4 261.12-3.15L261.12-3.15Q262.22-2.65 263.9-2.33 265.57-2 267.27-2L267.27-2ZM318.12-17.85Q318.52-17.6 318.52-17.2L318.52-17.2Q318.52-16.1 317.62-15 316.72-13.9 315.12-13.2 313.52-12.5 311.62-12.5L311.62-12.5Q308.97-12.5 307.37-13.85 305.77-15.2 305.67-17.3L305.67-17.3Q303.47-17.1 301.8-15.5 300.12-13.9 299.27-11.6L299.27-11.6 299.27-11.5 299.27-11.5Q299.07-11 299.02-10.75L299.02-10.75Q298.57-9.15 297.07-0.5L297.07-0.5Q297.02 0 294.92 0L294.92 0Q292.92 0 292.92-0.7L292.92-0.7Q292.92-1.1 293.22-2.75L293.22-2.75Q294.12-7.8 295.17-13.25 296.22-18.7 296.47-19.55L296.47-19.55Q296.67-20.3 297.2-20.55 297.72-20.8 298.62-20.8L298.62-20.8Q300.32-20.8 301.52-20.3L301.52-20.3Q301.12-19.15 300.42-16.2L300.42-16.2Q301.82-18.2 303.6-19.4 305.37-20.6 307.22-20.6L307.22-20.6Q308.07-20.6 308.67-20.38 309.27-20.15 309.42-19.85L309.42-19.85Q309.42-14.75 313.17-14.75L313.17-14.75Q316.17-14.75 318.12-17.85L318.12-17.85ZM337.37-11.45Q338.22-11.05 338.22-10.3L338.22-10.3Q338.22-8.05 335.59-5.58 332.97-3.1 329.09-1.43 325.22 0.25 321.92 0.25L321.92 0.25Q319.22 0.25 317.32-0.85 315.42-1.95 314.44-3.33 313.47-4.7 313.47-5.35L313.47-5.35Q313.82-6.65 314.14-8.45 314.47-10.25 314.62-10.95L314.62-10.95Q314.77-11.85 314.99-13.08 315.22-14.3 315.57-15.9L315.57-15.9Q315.77-16.9 317.32-18.13 318.87-19.35 320.84-20.18 322.82-21 324.12-21L324.12-21Q325.22-21 326.74-20.4 328.27-19.8 329.37-18.73 330.47-17.65 330.47-16.2L330.47-16.2Q330.47-14.35 328.64-12.6 326.82-10.85 324.02-9.73 321.22-8.6 318.52-8.5L318.52-8.5 318.12-6.4Q318.27-4.85 319.57-3.73 320.87-2.6 323.47-2.6L323.47-2.6Q325.97-2.6 328.69-3.75 331.42-4.9 333.74-6.93 336.07-8.95 337.37-11.45L337.37-11.45ZM323.67-18.9Q322.42-18.9 321.24-17.7 320.07-16.5 319.77-15.3L319.77-15.3 318.92-10.75Q321.92-10.95 324.02-12.5 326.12-14.05 326.12-16.15L326.12-16.15Q326.12-17.4 325.39-18.15 324.67-18.9 323.67-18.9L323.67-18.9ZM363.32-12.05Q364.22-12.05 364.22-10.55L364.22-10.55Q364.22-8.15 362.29-5.53 360.37-2.9 357.52-1.15 354.67 0.6 352.27 0.6L352.27 0.6Q350.37 0.6 348.94-0.5 347.52-1.6 346.92-3.35L346.92-3.35Q345.57-1.65 343.67-0.63 341.77 0.4 340.27 0.4L340.27 0.4Q338.97 0.4 337.67-0.38 336.37-1.15 335.47-2.35 334.57-3.55 334.52-4.75L334.52-4.75Q335.67-9.85 336.57-14.65L336.57-14.65Q336.77-15.65 338.27-17.18 339.77-18.7 341.87-19.8 343.97-20.9 345.87-20.9L345.87-20.9Q347.62-20.9 349.42-19.85L349.42-19.85Q349.77-20.7 349.97-20.93 350.17-21.15 350.57-21.2L350.57-21.2 354.92-21.45 355.07-21.35Q354.47-20.85 354.17-20.25 353.87-19.65 353.62-18.85L353.62-18.85Q352.72-15.8 351.77-11.48 350.82-7.15 350.82-5.5L350.82-5.5Q350.82-4.1 351.49-2.95 352.17-1.8 353.62-1.8L353.62-1.8Q355.12-1.8 357.09-3.1 359.07-4.4 360.79-6.75 362.52-9.1 363.32-12.05L363.32-12.05ZM341.87-2.6Q342.57-2.6 343.57-3.3 344.57-4 345.44-5.2 346.32-6.4 346.67-7.85L346.67-7.85 347.47-11.6Q348.37-16.2 348.72-17.65L348.72-17.65Q347.42-18.25 345.97-18.25L345.97-18.25Q343.62-18.25 342.44-16.78 341.27-15.3 340.87-13.45L340.87-13.45 339.32-5.9Q339.42-4.65 340.22-3.63 341.02-2.6 341.87-2.6L341.87-2.6ZM397.91-12.2Q398.51-12.2 398.86-11.88 399.21-11.55 399.21-10.9L399.21-10.9Q399.21-9.4 397.61-6.7 396.01-4 393.41-1.95 390.81 0.1 387.86 0.1L387.86 0.1Q385.21 0.1 383.29-1.53 381.36-3.15 381.36-5.5L381.36-5.5Q381.36-6.8 381.94-8.85 382.51-10.9 383.41-13.6L383.41-13.6Q384.21-16.2 384.31-16.6L384.31-16.6Q384.31-16.75 384.11-16.88 383.91-17 383.71-17L383.71-17Q382.76-17 380.41-13.73 378.06-10.45 376.86-8.15L376.86-8.15Q376.36-6.55 375.06-0.95L375.06-0.95Q374.86-0.1 374.74 0.2 374.61 0.5 374.36 0.5L374.36 0.5Q374.06 0.5 373.14 0.23 372.21-0.05 371.49-0.45 370.76-0.85 370.76-1.25L370.76-1.25Q370.76-1.9 371.21-3.55L371.21-3.55Q372.36-7.75 373.01-10.33 373.66-12.9 374.41-16.6L374.41-16.6Q374.11-17 373.66-17L373.66-17Q372.91-17 371.49-15.43 370.06-13.85 368.44-11.28 366.81-8.7 365.51-5.9L365.51-5.9Q364.61-2.65 364.01 0.45L364.01 0.45Q363.36 0.45 361.64 0.1 359.91-0.25 359.91-0.65L359.91-0.65Q359.91-1 360.41-2.85L360.41-2.85 360.66-4.15Q360.86-5.15 361.96-10.18 363.06-15.2 364.36-20.1L364.36-20.1Q364.46-20.55 364.61-20.75 364.76-20.95 365.06-20.95L365.06-20.95Q365.46-20.95 367.16-20.63 368.86-20.3 369.01-20.15L369.01-20.15Q368.06-16.05 366.91-11.7L366.91-11.7Q368.51-14.65 370.14-16.55 371.76-18.45 373.09-19.28 374.41-20.1 375.16-20.1L375.16-20.1Q375.81-20.1 377.44-19.48 379.06-18.85 379.06-18.5L379.06-18.5Q378.66-16.1 377.81-12.8L377.81-12.8Q383.06-20.65 385.41-20.65L385.41-20.65Q386.31-20.65 387.81-20.08 389.31-19.5 389.31-18.8L389.31-18.8Q388.76-17.05 388.81-17.15L388.81-17.15Q387.46-12.85 386.74-10.1 386.01-7.35 386.01-5.65L386.01-5.65Q386.01-2.55 388.91-2.55L388.91-2.55Q391.71-2.55 394.21-5.2 396.71-7.85 397.91-12.2L397.91-12.2ZM400.56 0.65Q398.71 0.65 397.16 0 395.61-0.65 394.71-1.68 393.81-2.7 393.81-3.8L393.81-3.8Q393.81-4.8 394.51-5.38 395.21-5.95 396.11-6.05L396.11-6.05Q396.71-4.05 397.91-2.9 399.11-1.75 400.86-1.75L400.86-1.75Q402.66-1.75 403.81-2.88 404.96-4 404.96-5.5L404.96-5.5Q404.96-6.75 404.21-7.68 403.46-8.6 401.81-9.9L401.81-9.9Q400.11-11.25 399.26-12.3 398.41-13.35 398.41-14.8L398.41-14.8Q398.41-16.4 399.49-17.8 400.56-19.2 402.24-20.03 403.91-20.85 405.56-20.85L405.56-20.85Q407.41-20.85 409.11-19.98 410.81-19.1 410.81-17.95L410.81-17.95Q410.81-17.4 410.41-16.85 410.01-16.3 409.21-15.95L409.21-15.95Q408.51-17.15 407.74-17.75 406.96-18.35 405.86-18.35L405.86-18.35Q404.66-18.35 403.76-17.68 402.86-17 402.86-15.8L402.86-15.8Q402.86-14.75 403.61-13.88 404.36-13 405.91-11.75L405.91-11.75Q407.76-10.25 408.69-9.13 409.61-8 409.61-6.45L409.61-6.45Q409.61-4.7 408.34-3.05 407.06-1.4 404.99-0.38 402.91 0.65 400.56 0.65L400.56 0.65Z"
                                                                opacity="1"
                                                                transform="matrix(1,0,0,1,0,0)"
                                                                fill="#fff9ef" class="slogan-text-1"
                                                                data-fill-palette-color="secondary"
                                                                id="text-1"></path>
                                                        </svg>
                                                    </g>
                                                </svg>
                                            </g>
                                        </svg>
                                    </g>
                                </svg>
                            </g>
                            <g></g>
                        </svg>
                    </g>
                    <defs></defs>
                </svg>
                <rect width="188.8153046453786" height="247.2" fill="none" stroke="none"
                    visibility="hidden"></rect>
            </g>
        </svg>
    </g>
</svg>